<svg xmlns="http://www.w3.org/2000/svg" height="800" width="1200" viewBox="-19.28679 -9.162475 167.15218 54.97485"><defs><linearGradient gradientUnits="userSpaceOnUse" gradientTransform="translate(0 35.21) scale(.88145)" y2="272.81" y1="296.2" x2="101.43" x1="101.43" id="a"><stop offset="0" stop-color="#00007f"/><stop offset="1" stop-color="#5993dc"/></linearGradient></defs><path fill="url(#a)" d="M30.864 290.15v-6.83h34.27l-.059-1.886-.058-1.887-17.083-.052-17.083-.052.057-2.394.058-2.395H48.5c17.399 0 17.542.003 18.463.43 1.289.596 2.256 1.5 2.85 2.66.464.91.503 1.206.496 3.74-.008 2.986-.164 3.611-1.212 4.853-.311.37-1.036.92-1.61 1.224l-1.045.55-15.037.056-15.037.057v8.757h-5.505zm49.402 6.535c-1.68-.525-3.321-2.095-3.73-3.57-.114-.406-.202-3.672-.203-7.462v-6.74l.536-1.075c.593-1.19 2.037-2.471 3.284-2.912.613-.217 3.86-.272 16.162-.272 15.19 0 15.406.006 16.312.427 1.257.584 2.147 1.377 2.807 2.5l.557 1.566v6.62c0 7.075-.01 7.257-.45 8.08-.638 1.191-2.163 2.465-3.389 2.829-1.428.424-30.53.432-31.885.01zm30.219-10.817v-6.32l-14.324-.053-14.324-.052v6.288c0 3.458.062 6.35.137 6.425.076.076 6.522.114 14.324.085l14.186-.052zm12.743-.102v-11.214h5.505v22.428h-5.505z" transform="translate(-.1544 -260.3484)"/><g stroke-width=".265"><path fill="#6d6e71" d="M84.6076 2.0936c.15.149.224.328.224.538 0 .21-.074.389-.224.54-.149.15-.33.225-.542.225-.212 0-.392-.074-.54-.223-.147-.15-.221-.329-.221-.538 0-.209.074-.39.223-.54a.732.732 0 01.54-.225c.21 0 .391.074.54.223zm-.064 1.015a.655.655 0 00.195-.475.651.651 0 00-.193-.473c-.129-.13-.287-.196-.474-.196s-.345.065-.475.197-.194.29-.194.475.065.343.192.474c.128.13.286.196.473.196s.345-.067.476-.198zm-.107-.622c0 .136-.06.222-.18.257l.22.297h-.178l-.198-.276h-.18v.276h-.144v-.824h.31c.125 0 .214.021.269.064.054.043.08.111.08.206zm-.184.116c.029-.024.042-.064.042-.117 0-.053-.014-.092-.043-.113-.03-.022-.082-.032-.156-.032h-.176v.298h.17c.08-.001.134-.013.163-.036z"/><path fill="#d22128" d="M82.0726 11.0366v.85h-6.534v-9.725h6.411v.85h-5.465v3.506h4.767v.808h-4.767v3.712h5.588zm-21.518-8.931c1.725 0 2.986.877 3.588 2.124l-.767.466c-.616-1.288-1.822-1.726-2.877-1.726-2.329 0-3.602 2.083-3.602 4.041 0 2.15 1.576 4.095 3.643 4.095 1.096 0 2.384-.548 3-1.808l.794.41c-.63 1.452-2.356 2.26-3.849 2.26-2.67 0-4.547-2.547-4.547-5.013 0-2.341 1.685-4.848 4.617-4.848zm12.788.056v9.725h-.96v-4.547h-5.766v4.547h-.944v-9.725h.944v4.329h5.767v-4.329zm-26.307 9.725l4.067-9.725h.781l4.068 9.725h-1.026l-1.26-3.04h-4.37l-1.247 3.04zm4.465-8.602l-2 4.808h3.946zm-10.837 8.602v-9.725h4.027c1.67 0 2.877 1.548 2.877 3.054 0 1.59-1.123 3.082-2.794 3.082h-3.165v3.588h-.945zm.945-4.438h3.11c1.15 0 1.89-1.055 1.89-2.233 0-1.22-.904-2.205-1.973-2.205h-3.027zm-10.913 4.438l4.069-9.725h.78l4.069 9.725h-1.028l-1.26-3.04h-4.37l-1.247 3.04zm4.467-8.602l-2 4.808h3.946z"/></g><path fill="red" d="M.0706 36.3416c-.605-.604 2.807-7.325 5.262-10.366.997-1.234 2.651-2.946 3.677-3.805 1.026-.858 1.867-1.745 1.87-1.971.003-.226-.458-.671-1.023-.989-1.943-1.092-4.8-4.057-6.32-6.56-1.015-1.672-1.57-2.71-2.078-2.896-.445.238-.805-.2-.802-.48-.466-1.153 1.678-2.345 2.581-2.058.861.148 1.113 1.728 1.35 2.352.546 1.442.473 1.3 1.053 2.458 1.273 2.545 3.327 4.728 5.457 5.804 1.63.823 2.213 1.627 1.863 2.573-.118.319-1.968 2.326-4.11 4.46-3.972 3.957-5.808 6.349-7.036 9.167a49.4 49.4 0 01-.87 1.914c-.229.433-.648.623-.874.397zm26.477-.55c-.21-.209.028-.619.358-.619.136 0 .247.178.247.394 0 .406-.31.521-.605.226zm-1.608-3.557c-.654-1.371-1.81-3.251-2.57-4.178-1.43-1.741-5.988-5.726-6.255-6.003-.56-.581-1.568-.847-1.392-2.28.08-.308 1.153-1.248 2.438-2.138 3.32-2.296 4.905-4.451 5.929-8.057.529-1.864 1.141-2.611 1.933-2.36.702.223.696.517-.055 2.588-1.293 3.56-3.326 6.016-7.064 8.532-1.119.753-2.056 1.317-2.034 1.781.037.787.712 1.182 2.755 2.998 1.796 1.597 4.028 4.149 5.381 6.155 1.607 2.38 2.734 4.844 2.379 5.2-.167.166-.673-.62-1.445-2.238z"/><g fill="#007f00" transform="translate(-.1544 -260.3484)"><circle r=".885" cy="273.9" cx="13.948"/><circle r=".702" cy="275.59" cx="15.639"/><circle r=".484" cy="275.62" cx="14.065"/><circle r=".336" cy="277.58" cx="15.015"/><circle r=".244" cy="276.89" cx="14.126"/><circle r=".336" cy="279.64" cx="13.95"/><circle r=".215" cy="281.62" cx="14.348"/><circle r=".215" cy="283.45" cx="12.798"/></g><g fill="red" transform="translate(-.1544 -260.3484)"><circle r=".885" cy="275.2" cx="11.593"/><circle r=".702" cy="274.96" cx="9.53"/><circle r=".702" cy="277.34" cx="12.035" transform="translate(1.406 30.932) scale(.88839)"/><circle r=".702" cy="277.34" cx="12.035" transform="translate(4.328 144.87) scale(.47385)"/><circle r=".702" cy="277.34" cx="12.035" transform="translate(10.987 155.23) scale(.44025)"/><circle r=".702" cy="277.34" cx="12.035" transform="translate(6.798 180.9) scale(.3463)"/><circle r=".702" cy="277.34" cx="12.035" transform="translate(10.707 182.43) scale(.3463)"/><circle r=".702" cy="277.34" cx="12.035" transform="translate(9.93 184.55) scale(.3463)"/><circle r=".702" cy="277.34" cx="12.035" transform="translate(8.886 186.36) scale(.3463)"/><circle r=".702" cy="277.34" cx="12.035" transform="translate(10.181 186.4) scale(.3463)"/><circle r=".702" cy="277.34" cx="12.035" transform="translate(11.234 187.66) scale(.3463)"/></g><g fill="#00f" transform="translate(-.1544 -260.3484)"><circle r=".702" cy="274.57" cx="17.475" transform="translate(-2.364 -37.146) scale(1.1353)"/><circle r=".702" cy="274.57" cx="17.475" transform="translate(5.914 90.545) scale(.67681)"/><circle r=".702" cy="274.57" cx="17.475" transform="translate(10.51 142.53) scale(.48139)"/><circle r=".702" cy="274.57" cx="17.475" transform="translate(13.652 195.04) scale(.29349)"/><circle r=".702" cy="274.57" cx="17.475" transform="translate(7.398 186.8) scale(.32356)"/><circle r=".702" cy="274.57" cx="17.475" transform="translate(.304 67.714) scale(.76609)"/><circle r=".215" cy="281.6" cx="13.56"/><circle r=".215" cy="283.19" cx="13.82"/><circle r=".215" cy="282.94" cx="15.131"/></g><g fill="#c0af83" transform="translate(-.1544 -260.3484)"><circle r=".215" cy="283.7" cx="12.013"/><circle r=".215" cy="284.78" cx="11.511"/><circle r=".215" cy="284.51" cx="12.562"/><circle r=".215" cy="284.76" cx="13.312"/><circle r=".215" cy="283.98" cx="13.613"/><circle r=".215" cy="283.97" cx="14.605"/><circle r=".215" cy="284.78" cx="14.871"/><circle r=".215" cy="284.77" cx="15.674"/><circle r=".215" cy="284.5" cx="16.418"/></g><g transform="translate(-392.9944 -545.2984) scale(3.1597)"><g stroke-width="0" transform="translate(.012 -1.728)"><ellipse ry=".645" rx="2.218" cy="184.28" cx="128.78"/><ellipse ry=".645" rx="2.218" cy="184.36" cx="128.78"/><ellipse fill="#ccaf5f" ry=".618" rx="2.183" cy="184.27" cx="128.78"/></g><path d="M128.824 180.449c-.662-.013-1.357.178-1.356.394l.001.382c.1.968.603 1.602 1.29 1.598.685-.004.954-.34 1.207-.846 1.092-.543.737-.904.114-.82l.009-.34c.006-.21-.603-.355-1.265-.368zm1.501.831c.185.016.177.179.055.3l-.382.287c.027-.175.069-.185.096-.576z"/><path fill="#ccaf5f" d="M127.52 181.3c.027.289.298 1.457 1.26 1.482.962.026 1.28-.98 1.267-1.48-.83.456-1.887.293-2.527-.002z"/><path fill="#fff" d="M127.51 181.24c.182.104.862.304 1.257.299.395-.006.64 0 1.272-.291l.006-.256c-.04.103-.674.326-1.277.328-.603.002-1.046-.126-1.26-.334z"/><ellipse fill="#fff" ry=".37" rx="1.275" cy="180.86" cx="129.53" transform="skewX(-.236) scale(1 .99999)"/><path fill="#c0af83" d="M127.71 181.06c.216.088.478.214 1.05.199.574-.016.94-.112 1.112-.21-.235-.152-.458-.241-1.051-.248-.593-.007-.935.11-1.111.259z"/></g><path fill="#cdcdcd" d="M9.7996.8716l.005.012v-.008c0-.002-.004-.002-.005-.003zm4.42.01l-.004.002c-.158.012-.335.077-.627.135-.088.018-.178.03-.291.045-.055.006-.103.014-.164.019a6.152 6.152 0 01-.654.02 65.787 65.787 0 01-1.704-.047 6.963 6.963 0 01-.632-.05l-.046-.004c.023.15.065.39.048.765l.025.002c.332 0 .563.009.745.025h.006c.675-.005 1.06.254 2.883-.089.64-.109.91.286 1.147.494.878.772 1.705 1.259 2.438.908.722-.177 1.103-.785 1.863-1.114.004-.294-.01-.558-.056-.734-.046.036-.066.054-.122.094a9.74 9.74 0 01-.835.544c-.647.31-1.06.613-1.523.596a1.076 1.076 0 01-.361-.08c-.252-.1-.536-.3-.883-.638a9.95 9.95 0 01-.576-.619h-.002a2.062 2.062 0 00-.355-.205.893.893 0 00-.071-.027.622.622 0 00-.247-.042zm-2.937.995c.013.006.03.013.04.02-.01-.007-.027-.014-.04-.02zm.096.075zm-.333.762c-.288.062-.688-.023-1.066.05-1.017 0-1.908.338-2.811 1.059-.48.382-.82.482-1.567.735-.386.13-.686.241-.94.332a5.684 5.684 0 01-.442.142c-.001 0-.004 0-.006.002-.08.02-.156.036-.213.038l.277.942c.018 0 .038.006.06.036.987-.51 1.074-.586 1.774-.756 0 0 .545 1.82.582 2.107.038.286.75 1.997 1.022 2.732.272.735.98 2.101 1.079 2.493.16.16.153.005 1.764-.579.703-.356 1.42-.658 1.591-.772-.03-.108-.058-.267-.089-.394-.023.18-.122.214-.323.291l-2.781 1.308-.23-.6a30.022 30.022 0 00-.836-1.847c-.435-.898-.832-1.986-.97-2.751l-.518-2.105c.974-.77 2.595-1.5 3.666-1.693l.977-.177zm-.93 1.223c-.55.065-1.541.517-2.367 1.124-.74.543-.8.688-.609 1.457a26.895 26.895 0 001.345 4.035h.001c.315.76.606 1.381.648 1.381.041 0 1.695-.72 2.355-1.04.106-.138.1-.21-.018-.782-.074-.36-.278-1.828-.453-3.261-.176-1.434-.411-2.712-.522-2.84-.063-.073-.197-.095-.38-.074zm.018.319c.41-.131.738 3.28 1.035 5.336.005.195.25.96-.06 1.073l-1.807.774-.549-1.443a19.494 19.494 0 01-.942-2.835c-.333-1.434-.325-1.48.277-1.874.34-.223 1.665-.886 2.046-1.031zm7.48.423c-.087.106-.161.353-.23.682l.933.155c.518.085 1.482.157 2.144.159.82.001 1.423.174 1.893.544l.882.582c.16-.272.267-.507.276-.864l-.019-.01c-.207-.082-.477-.231-.911-.467a3.902 3.902 0 00-.522-.204 11.31 11.31 0 00-1.478-.356 10.694 10.694 0 00-.775-.108c-.948-.094-1.925-.072-2.193-.113zm.06 1.21l-.5 3.089c-.347 2.997-.718 3.287-.144 3.031 0-.892.316-3.15.438-3.442l.41-2.316.821.26c.451.142 1.17.249 1.601.236 1.839.207 1.555.241.883 2.073h.002c-.341 1.025-.517 2.359-.94 3.409-.224.728-.197.658-.067.658.37 0 .758-1.672 1.026-2.867.134-.599.434-1.544.666-2.102.426-1.018.292-1.397-.526-1.476a29.216 29.216 0 01-2.618-.361z"/><path fill="#616162" d="M19.2336.3186c-.12.006-.274.06-.47.169-.027.02-.027.024-.053.044.316-.147.557-.219.657-.19a.33.33 0 00-.134-.023zm.181.048c.098.22.16.337.185.412-.016-.203-.074-.344-.185-.412zm-9.612.507l-.004.123c.047.325.09.588.008.792.104-.01.211-.023.31-.024h.027c.018-.375-.025-.615-.048-.765-.16-.029-.245-.07-.293-.126zm9.792.05a.444.444 0 01-.071.074 8.507 8.507 0 01-.328.26c.13.5.098 1.58-.33 2.666.135.001.216-.007.344-.008.056-1.013.39-2.263.385-2.993zm-8.227 1.484c-.02.08-.04.145-.04.145l.558.083c-.01.157-.014.317-.024.475-.16-.023-.321-.054-.482-.075l-.003.007c-.018-.242-.032-.334-.05-.49-.06.08-.162.122-.283.143v1.303c.189 2.693.314 3.204.65 4.869.247 1.928.697 3.534.859 3.063-.025-.19-.14-.756-.212-1.144.236.034.471.069.708.118-.01.1-.017.2-.028.299v.003l.16-.043.029-.221c.255.056.51.111.767.186.106.043.195.07.294.107-.019.123-.034.247-.055.37l.001.005.162-.035c.018-.092.034-.188.051-.281.36.125.672.21.961.273-.03.138-.055.275-.087.412v.005l.164-.025c.03-.118.058-.242.087-.361.174.034.345.067.513.097-.042.136-.078.282-.124.412.251.204.15.09.302-.156.212-.344.62-2.695.997-5.755.108-.875.221-1.339.37-1.52-.012-.001-.062 0-.07-.003-.123-.029-.232-.044-.258-.194-.003.003-.001.002-.003.005a16.45 16.45 0 01-.452-.097c.039-.15.073-.302.114-.45.091.015.264.06.41.095.017-.057.019-.087.042-.156v-.001c.013.001.079.001.096.003-.244-.045-.535-.097-.672-.126-.481-.11-.953-.246-1.422-.391l-.16-.051c-.303-.096-.607-.19-.908-.293-.185-.062-.37-.113-.555-.164l-.16-.046a14.95 14.95 0 00-1.557-.296l-.165-.027-.526-.076zm-4.016.134a2.36 2.36 0 00-.546.256c.18-.095.363-.172.546-.256zm4.698.119c.51.08 1.025.187 1.54.32-.023.145-.04.293-.062.439-.5-.128-1-.208-1.502-.283.01-.158.013-.319.024-.476zm1.701.361c.17.046.34.077.51.13.34.143.65.259.94.355-.029.134-.052.27-.079.403-.28-.09-.563-.173-.841-.269a10.451 10.451 0 00-.59-.175c.02-.147.037-.297.06-.444zm-2.364.166c.155.021.312.051.467.074-.01.179-.02.357-.027.537-.135-.02-.27-.044-.405-.064zm.633.1c.492.077.986.18 1.483.307-.024.167-.049.333-.07.501a14.93 14.93 0 00-1.439-.27c.007-.18.017-.36.026-.538zm3.34.267c.526.167.989.276 1.42.355-.04.146-.075.295-.114.442a19.81 19.81 0 01-1.384-.391c.026-.135.05-.272.078-.406zm-1.693.081c.182.049.363.083.545.139.314.133.6.24.87.332-.03.156-.061.311-.09.468-.262-.084-.527-.163-.787-.253a10.466 10.466 0 00-.608-.18c.02-.17.046-.337.07-.506zm-2.236.252l.388.062c-.006.177-.022.35-.025.528l-.33-.05c-.01-.198-.021-.35-.033-.54zm.556.089c.472.075.946.174 1.422.294-.02.165-.046.327-.064.493a15.109 15.109 0 00-1.376-.257c.002-.179.012-.353.018-.53zm3.256.181c.512.167.963.277 1.382.357-.044.166-.089.332-.13.5-.453-.11-.898-.249-1.342-.389.027-.158.06-.312.09-.468zm-1.67.155c.188.05.374.085.563.143.296.125.563.224.82.313-.027.153-.058.303-.082.457-.231-.076-.465-.143-.695-.223a10.55 10.55 0 00-.662-.196c.016-.166.037-.33.056-.494zm3.217.23c.156.028.313.056.466.081-.032.166-.065.334-.095.532a16.54 16.54 0 01-.5-.107c.04-.17.086-.337.129-.506zm-5.316.037c.107.018.213.035.32.05-.002.203-.002.406.002.61-.13-.02-.204-.041-.285-.063-.014-.254-.022-.329-.037-.597zm.498.08c.45.072.903.165 1.357.278-.018.192-.035.386-.049.58-.432-.108-.862-.18-1.294-.248-.003-.203-.015-.41-.014-.61zm3.144.165c.497.164.932.27 1.338.35-.038.162-.08.322-.116.485a21.46 21.46 0 01-1.298-.382c.023-.152.051-.302.076-.453zm-5.056.06c-.106-.021-.454.114-.71.245-.287.147-.696.387-.912.533-.216.146-.702.47-.539.471.164.003.996-.372 2.02-1.01.18-.159.204-.226.14-.239zm13.486 0c.145.074.32.152.42.217.122.08.067.476.065.557-.091.335-.228.387-.52.275-.015.613-.24.756-.724 1.613-.457 1.066-.501 1.244-1.055 2.821-.006.559-1.52 3.128-1.844 3.128-.149 0-.195.122-.102.272.288.465.944-.295 1.7-1.968.388-.86.791-1.974.895-2.475.105-.502.53-1.432.946-2.066.864-1.32.995-2.366.297-2.369-.018 0-.057-.005-.078-.005zm-10.04.099c.202.053.402.09.605.153.266.112.503.199.737.281a19.95 19.95 0 00-.078.554c-.233-.076-.468-.144-.699-.224a10.48 10.48 0 00-.603-.178c.014-.195.021-.393.038-.586zm-9.657.059c.108.478.317 1.277.781 2.745 1.125 3.324 2.344 5.703 3.037 5.92.254.08.202-.088-.157-.503-.995-1.15-1.593-2.14-2.605-5.05l-.905-3.085a.28.28 0 01-.151-.027zm12.772.165c.176.033.35.063.522.091-.025.168-.05.338-.073.524a15.36 15.36 0 01-.559-.12c.035-.166.072-.33.11-.495zm-5.101.124a2.2 2.2 0 00.277.06c.004.19.016.382.025.574-.122-.018-.19-.02-.266-.024zm.47.091c.424.071.849.163 1.275.27-.01.175-.012.353-.019.529-.414-.1-.828-.167-1.242-.23-.009-.19-.009-.38-.013-.569zm3.022.057c.483.164.9.267 1.294.349-.04.187-.08.375-.115.565a21.467 21.467 0 01-1.254-.37c.023-.182.05-.363.075-.544zm-4.741.218a.529.529 0 00-.164.02l-1.712.83c-.19.108-.22.089-.345.199-.126.111-.01.132.103.132.215 0 1.87-.83 2.148-1.04.081-.103.037-.134-.03-.14zm3.185.045c.183.049.364.082.548.138.267.114.506.2.741.284-.018.159-.027.322-.041.483-.222-.07-.446-.133-.667-.207-.205-.066-.41-.122-.614-.175.008-.176.022-.348.033-.523zm3.025.124c.194.038.382.07.57.1-.024.185-.051.408-.075.605-.2-.04-.4-.081-.599-.129.036-.191.065-.387.104-.576zm-4.915.215c.074.006.148.01.264.027.009.147.012.292.024.44.006.066.009.131.014.196-.119-.017-.187-.03-.265-.044-.009-.101-.026-.431-.037-.62zm.442.054c.41.066.82.151 1.232.251-.003.122-.012.24-.013.363 0 .08-.003.16-.003.239a14.107 14.107 0 00-1.176-.217c-.013-.094-.018-.17-.032-.268-.007-.125-.001-.244-.008-.368zm2.906.094h.001c.463.156.864.254 1.244.334-.027.154-.046.313-.07.47-.41-.101-.819-.21-1.221-.335.015-.156.028-.314.046-.47zm-9.075.03l-1.163.46.099.111 1.158-.447zm4.447.08l-1.064.53c-.502.24-.962.479-1.021.533v.001c-.055.138-.013.17.05.18.23-.184 1.766-.812 2.104-1.095zm3.125.09c.187.048.372.082.559.137.258.106.49.187.717.264-.008.114-.023.225-.03.34-.004.076-.012.153-.016.23-.215-.068-.433-.13-.647-.2a9.918 9.918 0 00-.594-.17c-.005-.109-.001-.198-.008-.313.003-.098.015-.19.02-.288zm-7.408.16l-1.163.46.099.11 1.156-.448zm10.345.017c.208.04.41.075.61.108l-.062.505c-.213-.043-.422-.098-.632-.147.025-.157.057-.31.084-.466zm1.755.23l-.065.14 3.257.478.072-.129zm-6.493 0c.077.016.152.028.267.045.017.192.027.383.042.575a7.5 7.5 0 00-.213-.03c-.018-.1-.083-.414-.088-.457-.002-.012-.007-.116-.008-.132zm3.238.053c.46.15.84.232 1.217.307-.018.128-.042.253-.057.382-.007.064-.018.127-.026.191a20.053 20.053 0 01-1.167-.315c0-.107.008-.195.008-.307.006-.087.017-.171.025-.258zm-2.785.021c.385.062.77.142 1.157.235 0 .189-.007.377-.01.565a12.92 12.92 0 00-1.08-.22c-.019-.185-.041-.38-.067-.58zm-5.926.025l-1.163.46.098.11 1.157-.447zm7.268.255c.175.045.349.077.525.129.251.103.478.183.698.258-.01.193-.027.386-.04.579-.203-.072-.41-.137-.612-.212a8.822 8.822 0 00-.555-.176c-.002-.184-.01-.38-.016-.578zm2.832.04c.212.04.435.088.641.122-.026.21-.046.393-.075.608-.22-.04-.431-.101-.647-.151.006-.087.015-.155.02-.245.017-.114.044-.221.06-.334zm1.772.022l-.065.14 3.257.477.072-.127zm-6.275.321c.06.01.117.016.196.029.018.239.038.477.052.716-.1-.015-.103-.018-.11-.022zm.414.067c.352.064.705.146 1.06.24-.004.222-.005.444-.012.666a12.302 12.302 0 00-.996-.193 19.716 19.716 0 00-.052-.713zm2.662 0c.434.14.796.214 1.153.285-.024.21-.055.418-.08.627a17.698 17.698 0 01-1.088-.326c.009-.185.011-.386.015-.586zm3.077.054l-.064.14 3.257.478.072-.128zm-11.494.15l-1.163.46.099.11 1.158-.448zm7.033.095c.163.047.326.08.49.134.238.108.451.19.66.27-.014.203-.026.406-.043.608-.204-.066-.41-.128-.612-.199a8.855 8.855 0 00-.51-.15c.007-.215.015-.428.015-.663zm2.716.021c.2.037.413.086.606.116l.05-.084c-.032.253-.082.509-.12.765-.2-.041-.394-.102-.592-.153.021-.204.04-.421.056-.644zm1.64.199l-.063.14 3.257.477.071-.129zm-11.225.014l-1.163.46.097.11 1.159-.447zm8.232.252c.401.142.74.222 1.071.296-.025.195-.049.391-.076.587-.35-.088-.698-.18-1.04-.288.016-.195.034-.383.045-.595zm-2.89.006c.016.005.022.008.093.02.012.206.022.414.03.621-.058-.293-.071-.383-.122-.64zm.31.054c.327.057.656.13.986.212-.007.229-.015.458-.027.687a12.36 12.36 0 00-.93-.181 19.954 19.954 0 00-.03-.718zm-5.518.034l-1.163.46.097.11 1.158-.446zm10.979.143l-.066.14 3.257.479.073-.13zm-4.265.089c.153.04.305.069.459.116.237.101.45.181.658.255-.018.21-.037.419-.059.628-.175-.056-.352-.108-.526-.167-.19-.062-.378-.098-.567-.146.017-.216.026-.451.035-.686zm2.669.014c.183.037.38.088.557.12l.04-.077c-.112.752-.233 1.504-.406 2.204-.182-.039-.36-.086-.54-.13.044-.2.085-.407.126-.621.145.026.303.065.444.087l.056-.098c-.161-.03-.316-.077-.475-.113.037-.198.067-.422.099-.638.161.03.336.073.493.098l.06-.11c-.18-.033-.354-.087-.532-.128.027-.193.055-.384.078-.594zm1.538.363l-.065.14 3.22.428.074-.129zm-2.883.065c.387.127.715.199 1.036.264-.03.211-.06.422-.094.632a16.606 16.606 0 01-1.004-.275c.025-.195.042-.41.062-.62zm-2.492.13c.307.049.615.11.923.184-.011.213-.022.427-.038.64-.296-.062-.59-.111-.886-.153.005-.214.003-.444.001-.672zm-5.24.015l-1.164.46.099.111 1.158-.448zm6.364.218c.174.044.347.078.522.13.203.086.385.15.565.214-.022.198-.04.397-.066.595-.11-.037-.22-.068-.33-.105-.249-.084-.499-.136-.748-.194.022-.204.039-.423.057-.64zm4.175.007l-.065.14 3.175.435.074-.128zm-10.375.105l-1.164.46.098.11 1.158-.448zm7.484.302a8.38 8.38 0 001.004.253c-.034.205-.067.41-.105.616-.33-.087-.659-.181-.983-.287.03-.186.057-.384.084-.582zm-7.35.043l-1.164.46.097.111 1.159-.447zm10.18.017l-.065.14 3.132.433.073-.129zm-5.242.077c.292.043.584.092.878.157a27.12 27.12 0 01-.049.53 12.95 12.95 0 00-.74-.118c-.032-.173-.055-.301-.092-.493 0-.026.002-.05.003-.076zm1.058.203c.237.056.473.107.711.18.13.055.242.092.361.137-.021.163-.048.326-.073.488-.087-.028-.175-.052-.262-.08-.268-.086-.536-.142-.804-.2.023-.173.046-.346.067-.525zm4.126.207l-.066.14 3.055.447.074-.129zm-2.877.177c.366.13.68.214.977.28-.03.155-.065.31-.097.464a18.158 18.158 0 01-.966-.273c.029-.157.059-.31.086-.471zm2.772.273l-.066.14 3.028.484.073-.129zm-1.614.043c.182.037.367.077.543.109-.042.166-.095.317-.142.475a21.835 21.835 0 01-.512-.117c.037-.155.075-.307.111-.467z"/><path fill="#f8f1d7" d="M13.4576 5.7436c-.01.175-.025.347-.033.524.204.053.41.109.614.175.22.074.445.137.667.207.014-.161.023-.325.041-.484-.235-.083-.474-.17-.741-.283-.184-.056-.365-.09-.548-.139z"/><path fill="#ebeca1" d="M11.9836 3.9766c-.005.177-.016.351-.018.53.46.07.917.144 1.376.257.018-.166.044-.328.064-.493-.476-.12-.95-.219-1.422-.294z"/><path fill="#218f21" d="M9.9756 9.1236c-.43-1.56-.437-1.695-.08-1.813.163-.055.362.336.455.89.091.544.238 1.252.326 1.575.09.324.045.586-.099.586-.143 0-.414-.557-.602-1.238z"/><path fill="#fe2e2e" d="M9.4836 10.7246c-.327-.712-.281-1.33-.62-1.987.142-.088.271-.216.378-.15.38.232.708 1.61.81 2.033-.358.18-.506.268-.568.104z"/><path fill="#2e51a8" d="M17.3956 3.8896c.357.051 2.16.078 2.739.024.918-.066 3.09.716 3.83 1.202.122.08.067.477.066.558-.157.574-.38.38-1.45-.2-.538-.27-1.787-.571-2.776-.669-.988-.097-2.053-.067-2.262-.117-.21-.05-.418.002-.146-.797zm-13.65.9c0-.308-.19-.51-.018-.682.627-.196.908.08 1.777-.526 1.477-1 3.31-1.797 4.612-1.802 1.077 0 1.3.043 1.3.317 0 .203-.089.47-.089.47-.244.322-.822.108-1.349.211-1.017 0-1.908.337-2.811 1.058-.48.382-.82.482-1.568.735-1.358.46-1.854.778-1.854.219zm11.149-3.621c-.877-.607-.614-.018-2.416-.052-2.72-.053-2.737-.056-2.737-.495 0-.293.371-.364 1.695-.326.932.028 1.242-.006 1.694-.146.191-.082.529-.135.83-.148.684-.027 1.317.294 1.851.86.296.293.736.96.888.88.107.082.818-.503 1.227-.754.694-.466 1.343-.715 1.477-.632.235.538.29.509.12.657-.171.149-.567.475-1.286.897-1.293.617-1.652 1.217-3.343-.741z"/></svg>